<?xml version="1.0" encoding="UTF-8" standalone="no"?>
<svg width="25px" height="25px" viewBox="0 0 25 25" version="1.1" xmlns="http://www.w3.org/2000/svg" xmlns:xlink="http://www.w3.org/1999/xlink">
    <!-- Generator: Sketch 3.7.2 (28276) - http://www.bohemiancoding.com/sketch -->
    <title>Shape</title>
    <desc>Created with Sketch.</desc>
    <defs></defs>
    <g id="Page-1" stroke="none" stroke-width="1" fill="none" fill-rule="evenodd">
        <g id="Desktop-HD-Copy-2" transform="translate(-12.000000, -753.000000)" fill="#E5E8ED">
            <g id="social" transform="translate(12.000000, 753.000000)">
                <path d="M12.5,0 C5.6075284,0 0,5.6075284 0,12.5 C0,19.3919681 5.6075284,25 12.5,25 C19.3919681,25 25,19.3919681 25,12.5 C25,5.6075284 19.3929751,0 12.5,0 L12.5,0 Z M15.6086361,12.9400628 L13.5749819,12.9400628 L13.5749819,20.188512 L10.5615081,20.188512 L10.5615081,12.9400628 L9.12903811,12.9400628 L9.12903811,10.3782325 L10.5615081,10.3782325 L10.5615081,8.72119955 C10.5615081,7.5344397 11.125433,5.68003303 13.6026746,5.68003303 L15.8357166,5.6885926 L15.8357166,8.17540079 L14.214936,8.17540079 C13.9510997,8.17540079 13.5759889,8.30731894 13.5759889,8.87325787 L13.5759889,10.378736 L15.8719689,10.378736 L15.6086361,12.9400628 L15.6086361,12.9400628 Z" id="Shape"></path>
            </g>
        </g>
    </g>
</svg>