<?xml version="1.0" encoding="UTF-8" standalone="no"?>
<svg width="225px" height="72px" viewBox="0 0 225 72" version="1.1" xmlns="http://www.w3.org/2000/svg" xmlns:xlink="http://www.w3.org/1999/xlink" xmlns:sketch="http://www.bohemiancoding.com/sketch/ns">
    <!-- Generator: Sketch 3.5.1 (25234) - http://www.bohemiancoding.com/sketch -->
    <title>Fake signature</title>
    <desc>Created with Sketch.</desc>
    <defs></defs>
    <g id="Page-1" stroke="none" stroke-width="1" fill="none" fill-rule="evenodd" sketch:type="MSPage">
        <g id="Tomino's---Home" sketch:type="MSArtboardGroup" transform="translate(-132.000000, -1454.000000)" stroke="#979797" stroke-width="2">
            <g id="Reopening-Section" sketch:type="MSLayerGroup" transform="translate(-49.000000, 833.000000)">
                <g id="Fake-signature" transform="translate(181.000000, 622.000000)" sketch:type="MSShapeGroup">
                    <path d="M50.1875,7.5546875 C50.1875,39.5310013 49.1357476,18.2281296 59.8164062,70.8125" id="Path-4"></path>
                    <path d="M0.81640625,16.7421875 C21.127321,10.852149 67.6628557,-3.88523254 87,1.66796875 C89.8987453,2.50042445 86.6774145,7.8089676 85.5195312,10.59375 C84.1526005,13.8813049 81.8732461,16.7454341 79.59375,19.4804688 C67.4814415,34.0133229 46.5853824,47.4642563 27.7421875,50.59375 C21.6335102,51.6082843 38.9690132,45.3303389 44.7773437,43.1835938 C50.3458738,41.1254783 56.0751162,39.5106142 61.8164062,38 C70.156347,35.8056442 78.4502469,33.2018407 87,32.0742188 C88.4020717,31.8893003 85.1181098,34.2082913 84,35.0742188 C77.4410038,40.1538761 71.0565245,45.5245159 64,49.8867188 C57.425756,53.9507854 50.3585138,57.196306 43.2617187,60.2578125 C37.7402245,62.6397455 32.0044819,64.5310213 26.2226562,66.1835938 C23.3350141,67.0089451 20.3089195,67.2424572 17.3359375,67.6679688 C16.8461372,67.738072 16.0050554,68.1383502 15.8515625,67.6679688 C15.1666806,65.5691372 18.8613959,66.1835938 19.0742187,66.1835938" id="Path-5"></path>
                    <path d="M71.9257812,47.9257813 C75.7161458,41.4934896 79.1583835,34.842933 83.296875,28.6289063 C83.918448,27.6956021 83.7595062,44.3399431 91.703125,41.9609375 C94.0678434,41.2527366 95.2043605,37.9832333 97.6289062,37.5195313 C103.291892,36.4364674 109.178087,37.9738944 114.925781,37.5195313 C115.622429,37.4644603 115.72996,36.2111768 116.40625,36.0351563 C117.76842,35.6806189 119.221354,36.0351563 120.628906,36.0351563" id="Path-6"></path>
                    <path d="M144.816406,12.8164062 C145.557292,24.5065104 145.946139,36.2242591 147.039062,47.8867188 C147.184784,49.4416921 147.71067,50.9960224 148.519531,52.3320312 C148.864803,52.9023222 148.519531,50.9986979 148.519531,50.3320312" id="Path-7"></path>
                    <path d="M117.40625,22.9257812 C143.261123,12.6690211 125.080003,18.9893837 173.703125,10.0742188" id="Path-8"></path>
                    <path d="M161.371094,31.0742188 C160.296875,35.2838542 157.983269,39.3617317 158.148438,43.703125 C158.21265,45.3909125 175.014737,39.6094172 166.777344,32.59375 C166.002946,31.9342065 165.178253,35.0127493 166.039062,35.5546875 C167.574004,36.5210377 169.686597,35.8228342 171.480469,35.5546875 C173.599273,35.23797 175.529551,33.9460691 177.667969,33.8164062 C185.147721,33.3628717 192.681265,34.4438738 200.148438,33.8164062 C208.458909,33.1180762 216.617187,31.1731771 224.851562,29.8515625" id="Path-9"></path>
                </g>
            </g>
        </g>
    </g>
</svg>